<svg xmlns="http://www.w3.org/2000/svg" viewBox="0 0 48 48" width="48" height="48">
  <defs>
    <linearGradient id="systems_bg" x1="0%" y1="0%" x2="100%" y2="100%">
      <stop offset="0%" stop-color="#7F52FF"/>
      <stop offset="100%" stop-color="#4428B4"/>
    </linearGradient>
    <radialGradient id="systems_gloss" cx="32%" cy="16%" r="58%">
      <stop offset="0%" stop-color="rgba(255,255,255,0.45)"/>
      <stop offset="100%" stop-color="rgba(255,255,255,0.0)"/>
    </radialGradient>
    <filter id="systems_shadow" x="-25%" y="-25%" width="150%" height="150%">
      <feDropShadow dx="0" dy="3" stdDeviation="3.5" flood-color="rgba(0,0,0,0.38)"/>
    </filter>
  </defs>
  <rect x="2" y="2" width="44" height="44" rx="11" ry="11" fill="url(#systems_bg)" filter="url(#systems_shadow)"/>
  <rect x="3" y="3" width="42" height="42" rx="10" ry="10" fill="none" stroke="rgba(255,255,255,0.20)" stroke-width="1"/>
  <rect x="2" y="2" width="44" height="44" rx="11" ry="11" fill="url(#systems_gloss)"/>
  <path d="M 33.96,23.13 L 37.49,23.41 L 37.49,24.59 L 33.96,24.87 L 31.66,30.43 L 33.95,33.12 L 33.12,33.95 L 30.43,31.66 L 24.87,33.96 L 24.59,37.49 L 23.41,37.49 L 23.13,33.96 L 17.57,31.66 L 14.88,33.95 L 14.05,33.12 L 16.34,30.43 L 14.04,24.87 L 10.51,24.59 L 10.51,23.41 L 14.04,23.13 L 16.34,17.57 L 14.05,14.88 L 14.88,14.05 L 17.57,16.34 L 23.13,14.04 L 23.41,10.51 L 24.59,10.51 L 24.87,14.04 L 30.43,16.34 L 33.12,14.05 L 33.95,14.88 L 31.66,17.57 Z M 29.39,22.93 L 29.08,21.90 L 28.57,20.94 L 27.89,20.11 L 27.06,19.43 L 26.10,18.92 L 25.07,18.61 L 24.00,18.50 L 22.93,18.61 L 21.90,18.92 L 20.94,19.43 L 20.11,20.11 L 19.43,20.94 L 18.92,21.90 L 18.61,22.93 L 18.50,24.00 L 18.61,25.07 L 18.92,26.10 L 19.43,27.06 L 20.11,27.89 L 20.94,28.57 L 21.90,29.08 L 22.93,29.39 L 24.00,29.50 L 25.07,29.39 L 26.10,29.08 L 27.06,28.57 L 27.89,27.89 L 28.57,27.06 L 29.08,26.10 L 29.39,25.07 L 29.50,24.00 Z" fill="rgba(255,255,255,0.88)" fill-rule="evenodd"/>

</svg>