<svg xmlns="http://www.w3.org/2000/svg" viewBox="0 0 48 48" width="48" height="48">
  <defs>
    <linearGradient id="settings_bg" x1="0%" y1="0%" x2="100%" y2="100%">
      <stop offset="0%" stop-color="#636366"/>
      <stop offset="100%" stop-color="#2C2C2E"/>
    </linearGradient>
    <radialGradient id="settings_gloss" cx="32%" cy="16%" r="58%">
      <stop offset="0%" stop-color="rgba(255,255,255,0.45)"/>
      <stop offset="100%" stop-color="rgba(255,255,255,0.0)"/>
    </radialGradient>
    <filter id="settings_shadow" x="-25%" y="-25%" width="150%" height="150%">
      <feDropShadow dx="0" dy="3" stdDeviation="3.5" flood-color="rgba(0,0,0,0.38)"/>
    </filter>
  </defs>
  <rect x="2" y="2" width="44" height="44" rx="11" ry="11" fill="url(#settings_bg)" filter="url(#settings_shadow)"/>
  <rect x="3" y="3" width="42" height="42" rx="10" ry="10" fill="none" stroke="rgba(255,255,255,0.20)" stroke-width="1"/>
  <rect x="2" y="2" width="44" height="44" rx="11" ry="11" fill="url(#settings_gloss)"/>
  <path d="M 33.95,22.95 L 36.98,23.32 L 36.98,24.68 L 33.95,25.05 L 29.88,32.09 L 31.08,34.90 L 29.90,35.58 L 28.07,33.14 L 19.93,33.14 L 18.10,35.58 L 16.92,34.90 L 18.12,32.09 L 14.05,25.05 L 11.02,24.68 L 11.02,23.32 L 14.05,22.95 L 18.12,15.91 L 16.92,13.10 L 18.10,12.42 L 19.93,14.86 L 28.07,14.86 L 29.90,12.42 L 31.08,13.10 L 29.88,15.91 Z M 28.41,23.12 L 28.16,22.28 L 27.74,21.50 L 27.18,20.82 L 26.50,20.26 L 25.72,19.84 L 24.88,19.59 L 24.00,19.50 L 23.12,19.59 L 22.28,19.84 L 21.50,20.26 L 20.82,20.82 L 20.26,21.50 L 19.84,22.28 L 19.59,23.12 L 19.50,24.00 L 19.59,24.88 L 19.84,25.72 L 20.26,26.50 L 20.82,27.18 L 21.50,27.74 L 22.28,28.16 L 23.12,28.41 L 24.00,28.50 L 24.88,28.41 L 25.72,28.16 L 26.50,27.74 L 27.18,27.18 L 27.74,26.50 L 28.16,25.72 L 28.41,24.88 L 28.50,24.00 Z" fill="rgba(255,255,255,0.88)" fill-rule="evenodd"/>
  <circle cx="24" cy="24" r="2.5" fill="rgba(255,255,255,0.60)"/>

</svg>