<svg xmlns="http://www.w3.org/2000/svg" viewBox="0 0 48 48" width="48" height="48">
  <defs>
    <linearGradient id="icon_social_bg" x1="0%" y1="0%" x2="100%" y2="100%">
      <stop offset="0%" stop-color="#A855F7"/>
      <stop offset="100%" stop-color="#7E22CE"/>
    </linearGradient>
    <radialGradient id="icon_social_gloss" cx="32%" cy="16%" r="58%">
      <stop offset="0%" stop-color="rgba(255,255,255,0.38)"/>
      <stop offset="100%" stop-color="rgba(255,255,255,0)"/>
    </radialGradient>
    <filter id="icon_social_shadow" x="-20%" y="-20%" width="140%" height="140%">
      <feDropShadow dx="0" dy="3" stdDeviation="3.5" flood-color="#7E22CE" flood-opacity="0.45"/>
    </filter>
  </defs>
  <rect x="2" y="2" width="44" height="44" rx="11" fill="url(#icon_social_bg)" filter="url(#icon_social_shadow)"/>
  <rect x="3" y="3" width="42" height="42" rx="10" fill="none" stroke="rgba(255,255,255,0.22)" stroke-width="1"/>
  <rect x="2" y="2" width="44" height="44" rx="11" fill="url(#icon_social_gloss)"/>
  <circle cx="20" cy="18" r="4" fill="none" stroke="white" stroke-width="2" opacity="0.9"/>
  <circle cx="28" cy="18" r="4" fill="none" stroke="white" stroke-width="2" opacity="0.9"/>
  <path d="M12 36c0-5 4-8 8-8" fill="none" stroke="white" stroke-width="2" stroke-linecap="round" opacity="0.85"/>
  <path d="M36 36c0-5-4-8-8-8" fill="none" stroke="white" stroke-width="2" stroke-linecap="round" opacity="0.85"/>
  <path d="M20 28c1-1 2-2 4-2s3 1 4 2" fill="none" stroke="white" stroke-width="2" stroke-linecap="round" opacity="0.75"/></svg>