<svg xmlns="http://www.w3.org/2000/svg" viewBox="0 0 48 48" width="48" height="48">
  <defs>
    <linearGradient id="icon_heart_bg" x1="0%" y1="0%" x2="100%" y2="100%">
      <stop offset="0%" stop-color="#FF375F"/>
      <stop offset="100%" stop-color="#CC0030"/>
    </linearGradient>
    <radialGradient id="icon_heart_gloss" cx="32%" cy="16%" r="58%">
      <stop offset="0%" stop-color="rgba(255,255,255,0.38)"/>
      <stop offset="100%" stop-color="rgba(255,255,255,0)"/>
    </radialGradient>
    <filter id="icon_heart_shadow" x="-20%" y="-20%" width="140%" height="140%">
      <feDropShadow dx="0" dy="3" stdDeviation="3.5" flood-color="#CC0030" flood-opacity="0.45"/>
    </filter>
  </defs>
  <rect x="2" y="2" width="44" height="44" rx="11" fill="url(#icon_heart_bg)" filter="url(#icon_heart_shadow)"/>
  <rect x="3" y="3" width="42" height="42" rx="10" fill="none" stroke="rgba(255,255,255,0.22)" stroke-width="1"/>
  <rect x="2" y="2" width="44" height="44" rx="11" fill="url(#icon_heart_gloss)"/>
  <path d="M24 35s-11-7-11-15c0-4 3-7 6-7 2 0 4 1 5 3 1-2 3-3 5-3 3 0 6 3 6 7 0 8-11 15-11 15z" fill="white" opacity="0.92"/></svg>