<svg xmlns="http://www.w3.org/2000/svg" viewBox="0 0 48 48" width="48" height="48">
  <defs>
    <linearGradient id="journal_bg" x1="0%" y1="0%" x2="100%" y2="100%">
      <stop offset="0%" stop-color="#BF5AF2"/>
      <stop offset="100%" stop-color="#8B00D4"/>
    </linearGradient>
    <radialGradient id="journal_gloss" cx="32%" cy="16%" r="58%">
      <stop offset="0%" stop-color="rgba(255,255,255,0.45)"/>
      <stop offset="100%" stop-color="rgba(255,255,255,0.0)"/>
    </radialGradient>
    <filter id="journal_shadow" x="-25%" y="-25%" width="150%" height="150%">
      <feDropShadow dx="0" dy="3" stdDeviation="3.5" flood-color="rgba(0,0,0,0.38)"/>
    </filter>
  </defs>
  <rect x="2" y="2" width="44" height="44" rx="11" ry="11" fill="url(#journal_bg)" filter="url(#journal_shadow)"/>
  <rect x="3" y="3" width="42" height="42" rx="10" ry="10" fill="none" stroke="rgba(255,255,255,0.20)" stroke-width="1"/>
  <rect x="2" y="2" width="44" height="44" rx="11" ry="11" fill="url(#journal_gloss)"/>
  <!-- left page -->
  <path d="M10,14 C10,14 10,34 10,34 Q16,32 24,34 L24,14 Q18,12 10,14 Z" fill="rgba(255,255,255,0.82)"/>
  <!-- right page -->
  <path d="M38,14 C38,14 38,34 38,34 Q32,32 24,34 L24,14 Q30,12 38,14 Z" fill="rgba(255,255,255,0.92)"/>
  <!-- spine -->
  <line x1="24" y1="14" x2="24" y2="34" stroke="rgba(255,255,255,0.35)" stroke-width="1"/>
  <!-- lines on right page -->
  <line x1="27" y1="20" x2="35" y2="19.5" stroke="rgba(255,255,255,0.55)" stroke-width="1.2" stroke-linecap="round"/>
  <line x1="27" y1="23.5" x2="35" y2="23" stroke="rgba(255,255,255,0.55)" stroke-width="1.2" stroke-linecap="round"/>
  <line x1="27" y1="27" x2="33" y2="26.6" stroke="rgba(255,255,255,0.55)" stroke-width="1.2" stroke-linecap="round"/>
  <!-- lines on left page -->
  <line x1="13" y1="20" x2="21" y2="19.5" stroke="rgba(255,255,255,0.40)" stroke-width="1.2" stroke-linecap="round"/>
  <line x1="13" y1="23.5" x2="21" y2="23" stroke="rgba(255,255,255,0.40)" stroke-width="1.2" stroke-linecap="round"/>

</svg>