<svg xmlns="http://www.w3.org/2000/svg" viewBox="0 0 48 48" width="48" height="48">
  <defs>
    <linearGradient id="icon_health_bg" x1="0%" y1="0%" x2="100%" y2="100%">
      <stop offset="0%" stop-color="#22C55E"/>
      <stop offset="100%" stop-color="#15803D"/>
    </linearGradient>
    <radialGradient id="icon_health_gloss" cx="32%" cy="16%" r="58%">
      <stop offset="0%" stop-color="rgba(255,255,255,0.38)"/>
      <stop offset="100%" stop-color="rgba(255,255,255,0)"/>
    </radialGradient>
    <filter id="icon_health_shadow" x="-20%" y="-20%" width="140%" height="140%">
      <feDropShadow dx="0" dy="3" stdDeviation="3.5" flood-color="#15803D" flood-opacity="0.45"/>
    </filter>
  </defs>
  <rect x="2" y="2" width="44" height="44" rx="11" fill="url(#icon_health_bg)" filter="url(#icon_health_shadow)"/>
  <rect x="3" y="3" width="42" height="42" rx="10" fill="none" stroke="rgba(255,255,255,0.22)" stroke-width="1"/>
  <rect x="2" y="2" width="44" height="44" rx="11" fill="url(#icon_health_gloss)"/>
  <path d="M24 14c0 0-2-4-6-4-4 0-6 3-6 6 0 8 12 16 12 16s12-8 12-16c0-3-2-6-6-6-4 0-6 4-6 4z" fill="white" opacity="0.9"/></svg>