<svg xmlns="http://www.w3.org/2000/svg" viewBox="0 0 48 48" width="48" height="48">
  <defs>
    <linearGradient id="icon_travel_bg" x1="0%" y1="0%" x2="100%" y2="100%">
      <stop offset="0%" stop-color="#14B8A6"/>
      <stop offset="100%" stop-color="#0F766E"/>
    </linearGradient>
    <radialGradient id="icon_travel_gloss" cx="32%" cy="16%" r="58%">
      <stop offset="0%" stop-color="rgba(255,255,255,0.38)"/>
      <stop offset="100%" stop-color="rgba(255,255,255,0)"/>
    </radialGradient>
    <filter id="icon_travel_shadow" x="-20%" y="-20%" width="140%" height="140%">
      <feDropShadow dx="0" dy="3" stdDeviation="3.5" flood-color="#0F766E" flood-opacity="0.45"/>
    </filter>
  </defs>
  <rect x="2" y="2" width="44" height="44" rx="11" fill="url(#icon_travel_bg)" filter="url(#icon_travel_shadow)"/>
  <rect x="3" y="3" width="42" height="42" rx="10" fill="none" stroke="rgba(255,255,255,0.22)" stroke-width="1"/>
  <rect x="2" y="2" width="44" height="44" rx="11" fill="url(#icon_travel_gloss)"/>
  <path d="M24 10c0 0-10 5-10 14 0 5 4 9 10 9s10-4 10-9c0-9-10-14-10-14z" fill="none" stroke="white" stroke-width="2" opacity="0.75"/>
  <path d="M14 24h20M24 10v24" stroke="white" stroke-width="1.5" stroke-dasharray="2,2" opacity="0.6"/>
  <ellipse cx="24" cy="24" rx="10" ry="5" fill="none" stroke="white" stroke-width="1.8" opacity="0.85"/></svg>