<svg xmlns="http://www.w3.org/2000/svg" viewBox="0 0 48 48" width="48" height="48">
  <defs>
    <linearGradient id="icon_sparkle_bg" x1="0%" y1="0%" x2="100%" y2="100%">
      <stop offset="0%" stop-color="#BF5AF2"/>
      <stop offset="100%" stop-color="#8B00D4"/>
    </linearGradient>
    <radialGradient id="icon_sparkle_gloss" cx="32%" cy="16%" r="58%">
      <stop offset="0%" stop-color="rgba(255,255,255,0.38)"/>
      <stop offset="100%" stop-color="rgba(255,255,255,0)"/>
    </radialGradient>
    <filter id="icon_sparkle_shadow" x="-20%" y="-20%" width="140%" height="140%">
      <feDropShadow dx="0" dy="3" stdDeviation="3.5" flood-color="#8B00D4" flood-opacity="0.45"/>
    </filter>
  </defs>
  <rect x="2" y="2" width="44" height="44" rx="11" fill="url(#icon_sparkle_bg)" filter="url(#icon_sparkle_shadow)"/>
  <rect x="3" y="3" width="42" height="42" rx="10" fill="none" stroke="rgba(255,255,255,0.22)" stroke-width="1"/>
  <rect x="2" y="2" width="44" height="44" rx="11" fill="url(#icon_sparkle_gloss)"/>
  <path d="M24 10l2 10 10 2-10 2-2 10-2-10-10-2 10-2z" fill="white" opacity="0.92"/>
  <path d="M34 14l1 4 4 1-4 1-1 4-1-4-4-1 4-1z" fill="white" opacity="0.7"/>
  <path d="M14 30l1 3 3 1-3 1-1 3-1-3-3-1 3-1z" fill="white" opacity="0.6"/></svg>