<svg xmlns="http://www.w3.org/2000/svg" viewBox="0 0 48 48" width="48" height="48">
  <defs>
    <linearGradient id="icon_fire_bg" x1="0%" y1="0%" x2="100%" y2="100%">
      <stop offset="0%" stop-color="#FF6B00"/>
      <stop offset="100%" stop-color="#CC2200"/>
    </linearGradient>
    <radialGradient id="icon_fire_gloss" cx="32%" cy="16%" r="58%">
      <stop offset="0%" stop-color="rgba(255,255,255,0.38)"/>
      <stop offset="100%" stop-color="rgba(255,255,255,0)"/>
    </radialGradient>
    <filter id="icon_fire_shadow" x="-20%" y="-20%" width="140%" height="140%">
      <feDropShadow dx="0" dy="3" stdDeviation="3.5" flood-color="#CC2200" flood-opacity="0.45"/>
    </filter>
  </defs>
  <rect x="2" y="2" width="44" height="44" rx="11" fill="url(#icon_fire_bg)" filter="url(#icon_fire_shadow)"/>
  <rect x="3" y="3" width="42" height="42" rx="10" fill="none" stroke="rgba(255,255,255,0.22)" stroke-width="1"/>
  <rect x="2" y="2" width="44" height="44" rx="11" fill="url(#icon_fire_gloss)"/>
  <path d="M24 8c0 0-2 4-2 7 0 2 1 4 3 5-1-3 1-5 1-5s1 3 3 5c1 1 1 3 0 4 3-2 5-5 5-9 0-5-4-9-4-9s1 5-1 7c-1-3-5-5-5-5z" fill="white" opacity="0.9"/>
  <path d="M20 28c0-3 2-6 4-8 0 2 1 4 3 4-1-2 0-4 2-5 1 3 1 6-1 8 2-1 3-3 3-5 2 2 2 5 0 7-1 2-3 3-6 3-3 0-5-2-5-4z" fill="white" opacity="0.85"/></svg>