<svg xmlns="http://www.w3.org/2000/svg" viewBox="0 0 48 48" width="48" height="48">
  <defs>
    <linearGradient id="calendar_bg" x1="0%" y1="0%" x2="100%" y2="100%">
      <stop offset="0%" stop-color="#0071E3"/>
      <stop offset="100%" stop-color="#004CB3"/>
    </linearGradient>
    <radialGradient id="calendar_gloss" cx="32%" cy="16%" r="58%">
      <stop offset="0%" stop-color="rgba(255,255,255,0.45)"/>
      <stop offset="100%" stop-color="rgba(255,255,255,0.0)"/>
    </radialGradient>
    <filter id="calendar_shadow" x="-25%" y="-25%" width="150%" height="150%">
      <feDropShadow dx="0" dy="3" stdDeviation="3.5" flood-color="rgba(0,0,0,0.38)"/>
    </filter>
  </defs>
  <rect x="2" y="2" width="44" height="44" rx="11" ry="11" fill="url(#calendar_bg)" filter="url(#calendar_shadow)"/>
  <rect x="3" y="3" width="42" height="42" rx="10" ry="10" fill="none" stroke="rgba(255,255,255,0.20)" stroke-width="1"/>
  <rect x="2" y="2" width="44" height="44" rx="11" ry="11" fill="url(#calendar_gloss)"/>
  <rect x="10" y="13" width="28" height="24" rx="4" ry="4" fill="rgba(255,255,255,0.88)"/>
  <rect x="10" y="13" width="28" height="8" rx="4" ry="4" fill="rgba(255,255,255,0.30)"/>
  <rect x="10" y="17" width="28" height="4" fill="rgba(255,255,255,0.30)"/>
  <rect x="16" y="10" width="3" height="7" rx="1.5" fill="rgba(255,255,255,0.80)"/>
  <rect x="29" y="10" width="3" height="7" rx="1.5" fill="rgba(255,255,255,0.80)"/>
  <!-- dot grid 3x2 -->
  <circle cx="16" cy="27" r="1.8" fill="rgba(0,90,200,0.55)"/>
  <circle cx="24" cy="27" r="1.8" fill="rgba(0,90,200,0.55)"/>
  <circle cx="32" cy="27" r="1.8" fill="rgba(0,90,200,0.55)"/>
  <circle cx="16" cy="32" r="1.8" fill="rgba(0,90,200,0.35)"/>
  <circle cx="24" cy="32" r="2.8" fill="rgba(0,90,200,0.80)"/>
  <circle cx="32" cy="32" r="1.8" fill="rgba(0,90,200,0.35)"/>

</svg>