<svg xmlns="http://www.w3.org/2000/svg" viewBox="0 0 48 48" width="48" height="48">
  <defs>
    <linearGradient id="icon_lightbulb_bg" x1="0%" y1="0%" x2="100%" y2="100%">
      <stop offset="0%" stop-color="#FF9F0A"/>
      <stop offset="100%" stop-color="#CC6200"/>
    </linearGradient>
    <radialGradient id="icon_lightbulb_gloss" cx="32%" cy="16%" r="58%">
      <stop offset="0%" stop-color="rgba(255,255,255,0.38)"/>
      <stop offset="100%" stop-color="rgba(255,255,255,0)"/>
    </radialGradient>
    <filter id="icon_lightbulb_shadow" x="-20%" y="-20%" width="140%" height="140%">
      <feDropShadow dx="0" dy="3" stdDeviation="3.5" flood-color="#CC6200" flood-opacity="0.45"/>
    </filter>
  </defs>
  <rect x="2" y="2" width="44" height="44" rx="11" fill="url(#icon_lightbulb_bg)" filter="url(#icon_lightbulb_shadow)"/>
  <rect x="3" y="3" width="42" height="42" rx="10" fill="none" stroke="rgba(255,255,255,0.22)" stroke-width="1"/>
  <rect x="2" y="2" width="44" height="44" rx="11" fill="url(#icon_lightbulb_gloss)"/>
  <path d="M24 11c-5 0-9 4-9 9 0 3 2 6 4 8v3h10v-3c2-2 4-5 4-8 0-5-4-9-9-9z" fill="none" stroke="white" stroke-width="2" stroke-linejoin="round" opacity="0.9"/>
  <line x1="20" y1="34" x2="28" y2="34" stroke="white" stroke-width="2" stroke-linecap="round" opacity="0.75"/>
  <line x1="21" y1="37" x2="27" y2="37" stroke="white" stroke-width="2" stroke-linecap="round" opacity="0.6"/>
  <line x1="24" y1="15" x2="24" y2="23" stroke="white" stroke-width="2" stroke-linecap="round" opacity="0.7"/>
  <line x1="20" y1="19" x2="28" y2="23" stroke="white" stroke-width="1.5" stroke-linecap="round" opacity="0.5"/></svg>